<?xml version="1.0" encoding="UTF-8" standalone="no"?>
<svg
   width="1217.4188"
   height="171.49493"
   viewBox="0 0 1217.4188 171.49493"
   version="1.1"
   xml:space="preserve"
   style="clip-rule:evenodd;fill-rule:evenodd;stroke-linejoin:round;stroke-miterlimit:2"
   id="svg9"
   xmlns="http://www.w3.org/2000/svg"
   xmlns:svg="http://www.w3.org/2000/svg"><defs
   id="defs9" />
    <g
   transform="translate(-28.789935,-314.25289)"
   id="g9">
        <g
   transform="matrix(0.56909,0,0,0.56909,-59.3312,174.683)"
   id="g1">
            <path
   d="m 556.639,257.834 c -9.034,31.942 -25.489,78.241 -49.364,138.898 -21.295,53.882 -33.555,89.211 -36.782,105.989 -2.258,11.938 -2.42,22.424 -0.484,31.458 H 401.77 c -1.291,0 -2.097,-3.227 -2.42,-9.68 V 499.333 L 361.601,391.892 c -14.842,26.135 -27.102,53.237 -36.782,81.307 -9.679,28.07 -13.389,48.397 -11.131,60.98 h -60.496 c -3.226,-6.453 -8.711,-22.585 -16.455,-48.397 -9.034,-30.651 -15.809,-52.268 -20.326,-64.852 -8.389,-26.134 -22.263,-65.012 -41.621,-116.635 -4.195,-7.744 -10.809,-20.972 -19.843,-39.686 -0.968,-1.936 5.001,-3.226 17.907,-3.871 9.034,-0.323 20.972,-0.323 35.813,0 5.163,0.322 11.615,0.645 19.359,0.968 1.613,5.484 3.71,12.421 6.292,20.81 6.452,30.651 18.229,72.595 35.329,125.831 3.227,11.938 6.614,23.715 10.163,35.33 4.84,14.842 9.518,22.585 14.035,23.23 l 48.881,-136.962 -24.198,-66.788 c 4.517,-2.258 11.615,-3.549 21.294,-3.871 11.293,0.322 26.78,-0.162 46.461,-1.452 l 60.012,197.458 c 3.549,-1.936 10.163,-15.971 19.842,-42.105 7.744,-21.295 15.487,-42.589 23.231,-63.884 0.323,-0.645 5.001,-15.648 14.035,-45.008 6.453,-20.972 13.067,-35.814 19.843,-44.525 16.454,-0.323 27.586,-0.968 33.393,-1.936 z"
   style="fill-rule:nonzero"
   id="path1" />
        </g>
        <g
   transform="matrix(0.56909,0,0,0.56909,-70.3312,174.683)"
   id="g2">
            <path
   d="m 738.127,534.179 c -5.485,0 -13.551,0.322 -24.199,0.968 -10.647,0.645 -18.713,0.968 -24.198,0.968 -4.84,0 -8.792,-5.405 -11.857,-16.213 -3.065,-10.809 -7.34,-16.213 -12.825,-16.213 l -83.243,1.936 c -9.356,0 -15.809,2.581 -19.358,7.743 0,0.323 -1.613,5.324 -4.84,15.003 -1.613,5.162 -5.162,7.744 -10.647,7.744 -9.034,0 -18.23,-0.646 -27.586,-1.936 l 82.758,-198.911 c -1.613,-10.647 -2.42,-16.616 -2.42,-17.906 0,-5.808 4.195,-8.712 12.583,-8.712 18.391,-1.936 37.266,-11.615 56.624,-29.038 10.325,7.744 15.487,14.519 15.487,20.327 0,4.194 -3.226,8.066 -9.679,11.615 -6.453,3.549 -9.679,7.098 -9.679,10.647 0,0.968 1.21,7.824 3.629,20.569 2.42,12.744 3.63,21.052 3.63,24.924 z M 663.112,474.167 623.427,360.919 575.998,472.715 c 6.13,3.872 10.808,5.646 14.035,5.324 41.298,1.935 65.658,0.645 73.079,-3.872 z"
   style="fill-rule:nonzero"
   id="path2" />
        </g>
        <g
   transform="matrix(0.56909,0,0,0.56909,-75.3312,174.683)"
   id="g3">
            <path
   d="m 923.486,474.651 c 0,13.228 -6.937,26.134 -20.811,38.717 -10.97,9.679 -24.521,18.068 -40.653,25.166 -14.196,6.453 -23.392,9.034 -27.586,7.744 l -34.846,-4.84 c -0.968,-0.645 -11.292,-5.162 -30.973,-13.551 -11.938,-5.162 -17.907,-11.454 -17.907,-18.875 l 7.743,-42.589 c 9.357,3.549 17.584,9.518 24.683,17.907 8.066,9.679 14.68,16.132 19.842,19.359 10.647,6.13 26.78,10.163 48.397,12.099 20.972,-5.485 31.458,-18.391 31.458,-38.717 0,-18.714 -15.81,-32.265 -47.429,-40.654 -26.134,-2.903 -44.686,-7.904 -55.656,-15.003 -13.874,-9.034 -20.811,-23.391 -20.811,-43.073 0,-8.066 1.291,-17.019 3.872,-26.86 2.581,-9.84 12.099,-20.407 28.554,-31.7 15.487,-10.324 27.747,-15.486 36.781,-15.486 19.036,0 32.265,1.613 39.686,4.839 5.162,-0.322 12.744,2.581 22.746,8.712 10.002,6.13 16.616,11.292 19.843,15.487 l -19.359,19.358 c -14.519,-15.164 -31.942,-22.746 -52.268,-22.746 -10.002,0 -18.552,2.258 -25.651,6.775 -8.066,5.485 -12.099,12.906 -12.099,22.263 0,7.098 4.356,13.067 13.067,17.907 7.099,4.194 13.713,6.291 19.843,6.291 38.072,8.066 61.464,15.648 70.175,22.747 12.906,10.969 19.359,33.877 19.359,68.723 z"
   style="fill-rule:nonzero"
   id="path3" />
        </g>
        <g
   transform="matrix(0.56909,0,0,0.56909,-75.3312,174.683)"
   id="g4">
            <path
   d="m 1372.61,504.657 c 0,5.485 -7.1,12.26 -21.3,20.326 -12.26,6.776 -20.49,10.486 -24.68,11.132 -35.17,3.226 -61.3,1.451 -78.4,-5.324 1.93,-3.872 10,-18.713 24.2,-44.525 9.68,-17.423 15.64,-31.297 17.9,-41.621 2.58,-12.261 3.87,-21.133 3.87,-26.618 0,-6.131 -2.9,-19.198 -8.71,-39.202 -3.22,-6.775 -8.22,-14.035 -15,-21.778 -9.36,-10.647 -18.23,-15.971 -26.62,-15.971 h -20.32 c -10.97,0 -23.32,7.421 -37.03,22.262 -13.71,14.842 -20.57,28.071 -20.57,39.686 l -3.38,56.14 9.68,63.883 c -0.33,3.227 -1.78,6.05 -4.36,8.47 -2.58,2.42 -5.16,3.307 -7.75,2.662 l -46.46,1.936 c -0.96,0 -2.9,-1.049 -5.8,-3.146 -2.91,-2.097 -4.52,-3.953 -4.84,-5.566 l 6.29,-51.784 v -94.858 c 0,-12.583 -5.65,-22.907 -16.94,-30.974 -10,-7.098 -20.65,-10.647 -31.94,-10.647 -15.17,0 -30.01,10.325 -44.53,30.974 -12.9,18.391 -19.355,33.555 -19.355,45.493 v 72.595 l 6.295,38.233 c -3.23,6.453 -6.618,9.68 -10.167,9.68 -21.294,0 -31.458,0 -30.49,0 -11.615,-0.968 -18.552,-4.034 -20.81,-9.196 -0.968,-2.258 -1.452,-4.84 -1.452,-7.743 l 4.839,-24.199 2.42,-92.921 -3.872,-53.72 c -0.645,-4.84 -2.984,-10.486 -7.017,-16.939 -4.033,-6.453 -6.05,-10.002 -6.05,-10.648 0.323,-1.613 0.807,-2.903 1.452,-3.871 1.613,-2.259 4.195,-3.388 7.744,-3.388 -2.581,0 16.939,0 58.56,0 0.645,2.581 0.645,8.066 0,16.455 -0.968,10.324 -1.452,15.809 -1.452,16.455 2.258,2.903 4.355,4.355 6.295,4.355 -1.29,0 6.37,-6.13 22.99,-18.39 16.61,-12.261 30.73,-18.552 42.34,-18.875 6.13,-1.291 19.04,-1.936 38.72,-1.936 8.39,-0.323 18.71,5.969 30.97,18.875 6.78,7.743 13.72,15.487 20.81,23.23 l 54.21,-36.297 c 9.36,-1.936 18.87,-4.033 28.55,-6.292 1.62,-0.323 10,-0.645 25.17,-0.968 16.78,-0.322 34.04,8.47 51.78,26.376 17.75,17.907 26.62,36.217 26.62,54.931 v 29.521 l -37.26,67.272 c 5.8,7.098 11.61,10.647 17.42,10.647 12.9,0 21.7,-0.565 26.37,-1.694 4.68,-1.129 8.15,-1.694 10.41,-1.694 2.26,0 4.6,1.13 7.02,3.388 2.42,2.259 3.63,4.194 3.63,5.808 z"
   style="fill-rule:nonzero"
   id="path4" />
        </g>
        <g
   transform="matrix(0.56909,0,0,0.56909,-72.3312,174.683)"
   id="g5">
            <path
   d="m 1634.92,451.42 c 0,21.295 -13.23,42.751 -39.69,64.368 -24.2,19.681 -44.52,29.199 -60.98,28.554 -21.29,-0.645 -42.59,-1.129 -63.88,-1.452 -2.91,-0.323 -16.46,-3.71 -40.66,-10.163 -10.32,0 -19.43,0.242 -27.34,0.726 -7.9,0.484 -12.5,0.726 -13.79,0.726 -2.58,0 -3.87,-3.065 -3.87,-9.196 l 6.77,-75.982 -1.45,-141.803 c -1.94,-9.034 -5,-17.906 -9.2,-26.618 -3.54,-7.098 -5.32,-10.97 -5.32,-11.615 0,-6.453 3.23,-9.679 9.68,-9.679 l 55.17,-1.936 c 5.81,0 8.71,2.581 8.71,7.743 0,0.968 -0.16,1.936 -0.48,2.904 l 0.97,13.067 c 11.29,-7.421 22.58,-14.68 33.87,-21.778 16.46,-9.357 32.59,-14.035 48.4,-14.035 14.52,0 27.02,4.517 37.51,13.551 10.49,9.034 15.73,20.972 15.73,35.813 0,6.776 -2.74,14.035 -8.23,21.779 -8.39,12.26 -14.03,21.617 -16.94,28.07 19.04,4.839 35.65,13.39 49.85,25.65 16.78,14.519 25.17,30.167 25.17,46.945 z M 1525.54,313.974 c 0.64,-10.325 -1.94,-19.036 -7.74,-26.134 -5.17,-6.131 -10.81,-9.196 -16.94,-9.196 -16.46,0 -30.81,11.616 -43.07,34.846 -9.68,18.068 -14.52,33.071 -14.52,45.009 0,9.034 1.93,15.325 5.8,18.875 50.98,-20.327 76.47,-41.46 76.47,-63.4 z m 52.27,121.475 c 0.64,-2.258 0.97,-4.355 0.97,-6.291 0,-13.228 -7.91,-25.166 -23.72,-35.814 -14.19,-9.356 -27.26,-14.035 -39.2,-14.035 -9.36,0 -20.81,3.307 -34.36,9.922 -13.55,6.614 -25.81,14.599 -36.78,23.956 v 55.172 c 0,11.615 2.42,21.456 7.26,29.522 6.13,10.002 14.84,15.003 26.13,15.003 36.78,0 57.11,-0.323 60.98,-0.968 11.94,-1.613 20.17,-7.582 24.68,-17.907 2.59,-6.13 7.26,-25.65 14.04,-58.56 z"
   style="fill-rule:nonzero"
   id="path5" />
        </g>
        <g
   transform="matrix(0.56909,0,0,0.56909,-70.3312,174.683)"
   id="g6">
            <path
   d="m 1897.71,438.353 c -3.23,22.585 -15.97,44.283 -38.23,65.094 -22.26,20.81 -45.82,32.668 -70.66,35.571 -20.01,2.581 -30.01,3.872 -30.01,3.872 0,0 -10.32,-1.774 -30.97,-5.324 -20.65,-3.549 -39.69,-16.132 -57.11,-37.749 -16.45,-20.327 -25.81,-40.814 -28.07,-61.464 -1.29,-12.26 -1.61,-20.165 -0.97,-23.714 2.91,-12.261 4.36,-18.875 4.36,-19.843 2.9,-23.23 15.65,-44.363 38.23,-63.399 19.04,-16.133 38.24,-26.457 57.59,-30.974 l 28.56,-2.904 c 23.23,0 38.39,1.613 45.49,4.84 7.1,3.226 13.87,6.291 20.33,9.195 8.71,4.517 15.64,9.357 20.81,14.519 8.06,8.066 15.97,17.745 23.71,29.038 10,13.874 15.49,25.005 16.46,33.394 0.64,6.13 1.45,11.454 2.42,15.971 0.96,3.226 1.45,5.646 1.45,7.259 0,2.259 -1.13,11.131 -3.39,26.618 z m -49.85,-14.519 c -8.39,-36.781 -20,-61.463 -34.84,-74.047 -4.2,-3.871 -8.39,-7.582 -12.59,-11.131 -5.48,-4.194 -11.93,-7.582 -19.35,-10.163 -7.43,-2.581 -19.36,-3.872 -35.82,-3.872 -8.39,0 -18.71,5.243 -30.97,15.729 -12.26,10.486 -18.39,20.085 -18.39,28.796 v 51.301 c 0,19.358 10.24,39.443 30.73,60.253 20.49,20.811 39.6,31.216 57.35,31.216 2.58,0 6.21,-0.564 10.89,-1.694 4.68,-1.129 9.11,-1.694 13.31,-1.694 8.39,-4.517 16.61,-11.776 24.68,-21.778 8.06,-10.002 12.42,-18.552 13.07,-25.65 z"
   style="fill-rule:nonzero"
   id="path6" />
        </g>
        <g
   transform="matrix(0.56909,0,0,0.56909,-76.3312,174.683)"
   id="g7">
            <path
   d="m 2141.63,478.523 c 0,12.905 -12.58,27.263 -37.75,43.073 -22.91,14.196 -39.68,21.294 -50.33,21.294 -45.82,0 -75.5,-11.454 -89.05,-34.362 -9.68,-16.132 -14.52,-49.525 -14.52,-100.181 l 22.26,-54.204 c -3.87,-9.357 -9.36,-13.551 -16.45,-12.583 l -36.78,11.131 c -5.17,-0.645 -7.75,-3.549 -7.75,-8.711 0,-4.84 2.9,-11.293 8.71,-19.359 5.81,-8.066 10.33,-12.099 13.55,-12.099 l 52.76,1.452 c 12.9,0 20.81,-1.936 23.71,-5.808 8.07,-11.292 18.88,-21.778 32.43,-31.458 9.68,1.936 18.55,2.582 26.61,1.936 l -13.55,35.33 h 49.85 l 30.98,-6.292 c 2.58,4.84 3.87,8.066 3.87,9.68 0,2.581 -2.75,7.985 -8.23,16.213 -5.48,8.227 -9.36,12.986 -11.61,14.277 l -28.08,-6.292 h -65.33 l -20.81,61.948 c 0,33.877 0.16,51.945 0.48,54.204 1.62,16.777 6.62,28.877 15.01,36.297 10.32,9.034 27.42,13.551 51.3,13.551 5.16,0 16.45,-6.936 33.87,-20.81 8.71,-7.098 17.43,-14.196 26.14,-21.295 5.81,4.84 8.71,9.196 8.71,13.068 z"
   style="fill-rule:nonzero"
   id="path7" />
        </g>
        <g
   transform="matrix(0.56909,0,0,0.56909,-78.3312,174.683)"
   id="g8">
            <path
   d="m 2327.47,474.651 c 0,13.228 -6.93,26.134 -20.81,38.717 -10.97,9.679 -24.52,18.068 -40.65,25.166 -14.2,6.453 -23.39,9.034 -27.59,7.744 l -34.84,-4.84 c -0.97,-0.645 -11.3,-5.162 -30.98,-13.551 -11.93,-5.162 -17.9,-11.454 -17.9,-18.875 l 7.74,-42.589 c 9.36,3.549 17.58,9.518 24.68,17.907 8.07,9.679 14.68,16.132 19.85,19.359 10.64,6.13 26.77,10.163 48.39,12.099 20.97,-5.485 31.46,-18.391 31.46,-38.717 0,-18.714 -15.81,-32.265 -47.43,-40.654 -26.13,-2.903 -44.69,-7.904 -55.65,-15.003 -13.88,-9.034 -20.82,-23.391 -20.82,-43.073 0,-8.066 1.3,-17.019 3.88,-26.86 2.58,-9.84 12.09,-20.407 28.55,-31.7 15.49,-10.324 27.75,-15.486 36.78,-15.486 19.04,0 32.27,1.613 39.69,4.839 5.16,-0.322 12.74,2.581 22.74,8.712 10.01,6.13 16.62,11.292 19.85,15.487 l -19.36,19.358 c -14.52,-15.164 -31.94,-22.746 -52.27,-22.746 -10,0 -18.55,2.258 -25.65,6.775 -8.07,5.485 -12.1,12.906 -12.1,22.263 0,7.098 4.36,13.067 13.07,17.907 7.09,4.194 13.71,6.291 19.84,6.291 38.07,8.066 61.46,15.648 70.17,22.747 12.91,10.969 19.36,33.877 19.36,68.723 z"
   style="fill-rule:nonzero"
   id="path8" />
        </g>
    </g>
</svg>
