<?xml version="1.0" encoding="UTF-8" standalone="no"?>
<!DOCTYPE svg PUBLIC "-//W3C//DTD SVG 1.1//EN" "http://www.w3.org/Graphics/SVG/1.1/DTD/svg11.dtd">
<svg width="100%" height="100%" viewBox="0 0 1280 800" version="1.1" xmlns="http://www.w3.org/2000/svg" xmlns:xlink="http://www.w3.org/1999/xlink" xml:space="preserve" xmlns:serif="http://www.serif.com/" style="fill-rule:evenodd;clip-rule:evenodd;stroke-linejoin:round;stroke-miterlimit:2;">
    <g transform="matrix(1,0,0,1,2.5,5.68434e-14)">
        <g transform="matrix(0.56909,0,0,0.56909,-59.3312,174.683)">
            <path d="M556.639,257.834C547.605,289.776 531.15,336.075 507.275,396.732C485.98,450.614 473.72,485.943 470.493,502.721C468.235,514.659 468.073,525.145 470.009,534.179L401.77,534.179C400.479,534.179 399.673,530.952 399.35,524.499L399.35,499.333L361.601,391.892C346.759,418.027 334.499,445.129 324.819,473.199C315.14,501.269 311.43,521.596 313.688,534.179L253.192,534.179C249.966,527.726 244.481,511.594 236.737,485.782C227.703,455.131 220.928,433.514 216.411,420.93C208.022,394.796 194.148,355.918 174.79,304.295C170.595,296.551 163.981,283.323 154.947,264.609C153.979,262.673 159.948,261.383 172.854,260.738C181.888,260.415 193.826,260.415 208.667,260.738C213.83,261.06 220.282,261.383 228.026,261.706C229.639,267.19 231.736,274.127 234.318,282.516C240.77,313.167 252.547,355.111 269.647,408.347C272.874,420.285 276.261,432.062 279.81,443.677C284.65,458.519 289.328,466.262 293.845,466.907L342.726,329.945L318.528,263.157C323.045,260.899 330.143,259.608 339.822,259.286C351.115,259.608 366.602,259.124 386.283,257.834L446.295,455.292C449.844,453.356 456.458,439.321 466.137,413.187C473.881,391.892 481.624,370.598 489.368,349.303C489.691,348.658 494.369,333.655 503.403,304.295C509.856,283.323 516.47,268.481 523.246,259.77C539.7,259.447 550.832,258.802 556.639,257.834Z" style="fill-rule:nonzero;"/>
        </g>
        <g transform="matrix(0.56909,0,0,0.56909,-70.3312,174.683)">
            <path d="M738.127,534.179C732.642,534.179 724.576,534.501 713.928,535.147C703.281,535.792 695.215,536.115 689.73,536.115C684.89,536.115 680.938,530.71 677.873,519.902C674.808,509.093 670.533,503.689 665.048,503.689L581.805,505.625C572.449,505.625 565.996,508.206 562.447,513.368C562.447,513.691 560.834,518.692 557.607,528.371C555.994,533.533 552.445,536.115 546.96,536.115C537.926,536.115 528.73,535.469 519.374,534.179L602.132,335.268C600.519,324.621 599.712,318.652 599.712,317.362C599.712,311.554 603.907,308.65 612.295,308.65C630.686,306.714 649.561,297.035 668.919,279.612C679.244,287.356 684.406,294.131 684.406,299.939C684.406,304.133 681.18,308.005 674.727,311.554C668.274,315.103 665.048,318.652 665.048,322.201C665.048,323.169 666.258,330.025 668.677,342.77C671.097,355.514 672.307,363.822 672.307,367.694L738.127,534.179ZM663.112,474.167L623.427,360.919L575.998,472.715C582.128,476.587 586.806,478.361 590.033,478.039C631.331,479.974 655.691,478.684 663.112,474.167Z" style="fill-rule:nonzero;"/>
        </g>
        <g transform="matrix(0.56909,0,0,0.56909,-75.3312,174.683)">
            <path d="M923.486,474.651C923.486,487.879 916.549,500.785 902.675,513.368C891.705,523.047 878.154,531.436 862.022,538.534C847.826,544.987 838.63,547.568 834.436,546.278L799.59,541.438C798.622,540.793 788.298,536.276 768.617,527.887C756.679,522.725 750.71,516.433 750.71,509.012L758.453,466.423C767.81,469.972 776.037,475.941 783.136,484.33C791.202,494.009 797.816,500.462 802.978,503.689C813.625,509.819 829.758,513.852 851.375,515.788C872.347,510.303 882.833,497.397 882.833,477.071C882.833,458.357 867.023,444.806 835.404,436.417C809.27,433.514 790.718,428.513 779.748,421.414C765.874,412.38 758.937,398.023 758.937,378.341C758.937,370.275 760.228,361.322 762.809,351.481C765.39,341.641 774.908,331.074 791.363,319.781C806.85,309.457 819.11,304.295 828.144,304.295C847.18,304.295 860.409,305.908 867.83,309.134C872.992,308.812 880.574,311.715 890.576,317.846C900.578,323.976 907.192,329.138 910.419,333.333L891.06,352.691C876.541,337.527 859.118,329.945 838.792,329.945C828.79,329.945 820.24,332.203 813.141,336.72C805.075,342.205 801.042,349.626 801.042,358.983C801.042,366.081 805.398,372.05 814.109,376.89C821.208,381.084 827.822,383.181 833.952,383.181C872.024,391.247 895.416,398.829 904.127,405.928C917.033,416.897 923.486,439.805 923.486,474.651Z" style="fill-rule:nonzero;"/>
        </g>
        <g transform="matrix(0.56909,0,0,0.56909,-75.3312,174.683)">
            <path d="M1372.61,504.657C1372.61,510.142 1365.51,516.917 1351.31,524.983C1339.05,531.759 1330.82,535.469 1326.63,536.115C1291.46,539.341 1265.33,537.566 1248.23,530.791C1250.16,526.919 1258.23,512.078 1272.43,486.266C1282.11,468.843 1288.07,454.969 1290.33,444.645C1292.91,432.384 1294.2,423.512 1294.2,418.027C1294.2,411.896 1291.3,398.829 1285.49,378.825C1282.27,372.05 1277.27,364.79 1270.49,357.047C1261.13,346.4 1252.26,341.076 1243.87,341.076L1223.55,341.076C1212.58,341.076 1200.23,348.497 1186.52,363.338C1172.81,378.18 1165.95,391.409 1165.95,403.024L1162.57,459.164L1172.25,523.047C1171.92,526.274 1170.47,529.097 1167.89,531.517C1165.31,533.937 1162.73,534.824 1160.14,534.179L1113.68,536.115C1112.72,536.115 1110.78,535.066 1107.88,532.969C1104.97,530.872 1103.36,529.016 1103.04,527.403L1109.33,475.619L1109.33,380.761C1109.33,368.178 1103.68,357.854 1092.39,349.787C1082.39,342.689 1071.74,339.14 1060.45,339.14C1045.28,339.14 1030.44,349.465 1015.92,370.114C1003.02,388.505 996.565,403.669 996.565,415.607L996.565,488.202L1002.86,526.435C999.63,532.888 996.242,536.115 992.693,536.115C971.399,536.115 961.235,536.115 962.203,536.115C950.588,535.147 943.651,532.081 941.393,526.919C940.425,524.661 939.941,522.079 939.941,519.176L944.78,494.977L947.2,402.056L943.328,348.336C942.683,343.496 940.344,337.85 936.311,331.397C932.278,324.944 930.261,321.395 930.261,320.749C930.584,319.136 931.068,317.846 931.713,316.878C933.326,314.619 935.908,313.49 939.457,313.49C936.876,313.49 956.396,313.49 998.017,313.49C998.662,316.071 998.662,321.556 998.017,329.945C997.049,340.269 996.565,345.754 996.565,346.4C998.823,349.303 1000.92,350.755 1002.86,350.755C1001.57,350.755 1009.23,344.625 1025.85,332.365C1042.46,320.104 1056.58,313.813 1068.19,313.49C1074.32,312.199 1087.23,311.554 1106.91,311.554C1115.3,311.231 1125.62,317.523 1137.88,330.429C1144.66,338.172 1151.6,345.916 1158.69,353.659L1212.9,317.362C1222.26,315.426 1231.77,313.329 1241.45,311.07C1243.07,310.747 1251.45,310.425 1266.62,310.102C1283.4,309.78 1300.66,318.572 1318.4,336.478C1336.15,354.385 1345.02,372.695 1345.02,391.409L1345.02,420.93L1307.76,488.202C1313.56,495.3 1319.37,498.849 1325.18,498.849C1338.08,498.849 1346.88,498.284 1351.55,497.155C1356.23,496.026 1359.7,495.461 1361.96,495.461C1364.22,495.461 1366.56,496.591 1368.98,498.849C1371.4,501.108 1372.61,503.043 1372.61,504.657Z" style="fill-rule:nonzero;"/>
        </g>
        <g transform="matrix(0.56909,0,0,0.56909,-72.3312,174.683)">
            <path d="M1634.92,451.42C1634.92,472.715 1621.69,494.171 1595.23,515.788C1571.03,535.469 1550.71,544.987 1534.25,544.342C1512.96,543.697 1491.66,543.213 1470.37,542.89C1467.46,542.567 1453.91,539.18 1429.71,532.727C1419.39,532.727 1410.28,532.969 1402.37,533.453C1394.47,533.937 1389.87,534.179 1388.58,534.179C1386,534.179 1384.71,531.114 1384.71,524.983L1391.48,449.001L1390.03,307.198C1388.09,298.164 1385.03,289.292 1380.83,280.58C1377.29,273.482 1375.51,269.61 1375.51,268.965C1375.51,262.512 1378.74,259.286 1385.19,259.286L1440.36,257.35C1446.17,257.35 1449.07,259.931 1449.07,265.093C1449.07,266.061 1448.91,267.029 1448.59,267.997L1449.56,281.064C1460.85,273.643 1472.14,266.384 1483.43,259.286C1499.89,249.929 1516.02,245.251 1531.83,245.251C1546.35,245.251 1558.85,249.768 1569.34,258.802C1579.83,267.836 1585.07,279.774 1585.07,294.615C1585.07,301.391 1582.33,308.65 1576.84,316.394C1568.45,328.654 1562.81,338.011 1559.9,344.464C1578.94,349.303 1595.55,357.854 1609.75,370.114C1626.53,384.633 1634.92,400.281 1634.92,417.059L1634.92,451.42ZM1525.54,313.974C1526.18,303.649 1523.6,294.938 1517.8,287.84C1512.63,281.709 1506.99,278.644 1500.86,278.644C1484.4,278.644 1470.05,290.26 1457.79,313.49C1448.11,331.558 1443.27,346.561 1443.27,358.499C1443.27,367.533 1445.2,373.824 1449.07,377.374C1500.05,357.047 1525.54,335.914 1525.54,313.974ZM1577.81,435.449C1578.45,433.191 1578.78,431.094 1578.78,429.158C1578.78,415.93 1570.87,403.992 1555.06,393.344C1540.87,383.988 1527.8,379.309 1515.86,379.309C1506.5,379.309 1495.05,382.616 1481.5,389.231C1467.95,395.845 1455.69,403.83 1444.72,413.187L1444.72,468.359C1444.72,479.974 1447.14,489.815 1451.98,497.881C1458.11,507.883 1466.82,512.884 1478.11,512.884C1514.89,512.884 1535.22,512.561 1539.09,511.916C1551.03,510.303 1559.26,504.334 1563.77,494.009C1566.36,487.879 1571.03,468.359 1577.81,435.449Z" style="fill-rule:nonzero;"/>
        </g>
        <g transform="matrix(0.56909,0,0,0.56909,-70.3312,174.683)">
            <path d="M1897.71,438.353C1894.48,460.938 1881.74,482.636 1859.48,503.447C1837.22,524.257 1813.66,536.115 1788.82,539.018C1768.81,541.599 1758.81,542.89 1758.81,542.89C1758.81,542.89 1748.49,541.116 1727.84,537.566C1707.19,534.017 1688.15,521.434 1670.73,499.817C1654.28,479.49 1644.92,459.003 1642.66,438.353C1641.37,426.093 1641.05,418.188 1641.69,414.639C1644.6,402.378 1646.05,395.764 1646.05,394.796C1648.95,371.566 1661.7,350.433 1684.28,331.397C1703.32,315.264 1722.52,304.94 1741.87,300.423L1770.43,297.519C1793.66,297.519 1808.82,299.132 1815.92,302.359C1823.02,305.585 1829.79,308.65 1836.25,311.554C1844.96,316.071 1851.89,320.911 1857.06,326.073C1865.12,334.139 1873.03,343.818 1880.77,355.111C1890.77,368.985 1896.26,380.116 1897.23,388.505C1897.87,394.635 1898.68,399.959 1899.65,404.476C1900.61,407.702 1901.1,410.122 1901.1,411.735C1901.1,413.994 1899.97,422.866 1897.71,438.353ZM1847.86,423.834C1839.47,387.053 1827.86,362.371 1813.02,349.787C1808.82,345.916 1804.63,342.205 1800.43,338.656C1794.95,334.462 1788.5,331.074 1781.08,328.493C1773.65,325.912 1761.72,324.621 1745.26,324.621C1736.87,324.621 1726.55,329.864 1714.29,340.35C1702.03,350.836 1695.9,360.435 1695.9,369.146L1695.9,420.447C1695.9,439.805 1706.14,459.89 1726.63,480.7C1747.12,501.511 1766.23,511.916 1783.98,511.916C1786.56,511.916 1790.19,511.352 1794.87,510.222C1799.55,509.093 1803.98,508.528 1808.18,508.528C1816.57,504.011 1824.79,496.752 1832.86,486.75C1840.92,476.748 1845.28,468.198 1845.93,461.1L1847.86,423.834Z" style="fill-rule:nonzero;"/>
        </g>
        <g transform="matrix(0.56909,0,0,0.56909,-76.3312,174.683)">
            <path d="M2141.63,478.523C2141.63,491.428 2129.05,505.786 2103.88,521.596C2080.97,535.792 2064.2,542.89 2053.55,542.89C2007.73,542.89 1978.05,531.436 1964.5,508.528C1954.82,492.396 1949.98,459.003 1949.98,408.347L1972.24,354.143C1968.37,344.786 1962.88,340.592 1955.79,341.56L1919.01,352.691C1913.84,352.046 1911.26,349.142 1911.26,343.98C1911.26,339.14 1914.16,332.687 1919.97,324.621C1925.78,316.555 1930.3,312.522 1933.52,312.522L1986.28,313.974C1999.18,313.974 2007.09,312.038 2009.99,308.166C2018.06,296.874 2028.87,286.388 2042.42,276.708C2052.1,278.644 2060.97,279.29 2069.03,278.644L2055.48,313.974L2105.33,313.974L2136.31,307.682C2138.89,312.522 2140.18,315.748 2140.18,317.362C2140.18,319.943 2137.43,325.347 2131.95,333.575C2126.47,341.802 2122.59,346.561 2120.34,347.852L2092.26,341.56L2026.93,341.56L2006.12,403.508C2006.12,437.385 2006.28,455.453 2006.6,457.712C2008.22,474.489 2013.22,486.589 2021.61,494.009C2031.93,503.043 2049.03,507.56 2072.91,507.56C2078.07,507.56 2089.36,500.624 2106.78,486.75C2115.49,479.652 2124.21,472.554 2132.92,465.455C2138.73,470.295 2141.63,474.651 2141.63,478.523Z" style="fill-rule:nonzero;"/>
        </g>
        <g transform="matrix(0.56909,0,0,0.56909,-78.3312,174.683)">
            <path d="M2327.47,474.651C2327.47,487.879 2320.54,500.785 2306.66,513.368C2295.69,523.047 2282.14,531.436 2266.01,538.534C2251.81,544.987 2242.62,547.568 2238.42,546.278L2203.58,541.438C2202.61,540.793 2192.28,536.276 2172.6,527.887C2160.67,522.725 2154.7,516.433 2154.7,509.012L2162.44,466.423C2171.8,469.972 2180.02,475.941 2187.12,484.33C2195.19,494.009 2201.8,500.462 2206.97,503.689C2217.61,509.819 2233.74,513.852 2255.36,515.788C2276.33,510.303 2286.82,497.397 2286.82,477.071C2286.82,458.357 2271.01,444.806 2239.39,436.417C2213.26,433.514 2194.7,428.513 2183.74,421.414C2169.86,412.38 2162.92,398.023 2162.92,378.341C2162.92,370.275 2164.22,361.322 2166.8,351.481C2169.38,341.641 2178.89,331.074 2195.35,319.781C2210.84,309.457 2223.1,304.295 2232.13,304.295C2251.17,304.295 2264.4,305.908 2271.82,309.134C2276.98,308.812 2284.56,311.715 2294.56,317.846C2304.57,323.976 2311.18,329.138 2314.41,333.333L2295.05,352.691C2280.53,337.527 2263.11,329.945 2242.78,329.945C2232.78,329.945 2224.23,332.203 2217.13,336.72C2209.06,342.205 2205.03,349.626 2205.03,358.983C2205.03,366.081 2209.39,372.05 2218.1,376.89C2225.19,381.084 2231.81,383.181 2237.94,383.181C2276.01,391.247 2299.4,398.829 2308.11,405.928C2321.02,416.897 2327.47,439.805 2327.47,474.651Z" style="fill-rule:nonzero;"/>
        </g>
    </g>
</svg>
